<?xml version="1.0" encoding="utf-8"?>
<!-- Generator: Adobe Illustrator 21.1.0, SVG Export Plug-In . SVG Version: 6.00 Build 0)  -->
<svg version="1.1" id="Layer_1" xmlns="http://www.w3.org/2000/svg" xmlns:xlink="http://www.w3.org/1999/xlink" x="0px" y="0px"
	 viewBox="0 0 60 60" style="enable-background:new 0 0 60 60;" xml:space="preserve">
<style type="text/css">
	.st0{fill:#00549A;stroke:#00549A;stroke-width:1.2529;stroke-linecap:round;stroke-miterlimit:10;}
</style>
<g>
	<path class="st0" d="M33.3,36.5c0.6,0.3,1.3,0.4,1.9-0.2c0.5-0.5,2.2-2.5,2.2-2.5s0.5-0.6,1.3-0.1s2.3,1.5,5.3,3.5
		c0.5,0.4,0.3,1,0.3,1s-2.1,3.4-5.5,5.1c-0.8,0.5-2.5,0-2.5,0s-14-3.1-18.8-17.4c-0.3-0.6,0-1.8,0-1.8s0.4-2.6,4.3-5.8
		c0.6-0.5,1.3,0,1.3,0s1.9,2,4.2,5.2c0.3,0.4,0.1,1-0.1,1.1c-1.6,1.3-2.6,2.9-2.6,2.9s-0.2,0.7,0.2,1.1
		C25.1,29.1,28.1,33.9,33.3,36.5z"/>
</g>
</svg>
